<?xml version="1.0" standalone="no"?>
<!DOCTYPE svg PUBLIC "-//W3C//DTD SVG 20010904//EN"
 "http://www.w3.org/TR/2001/REC-SVG-20010904/DTD/svg10.dtd">
<svg version="1.0" xmlns="http://www.w3.org/2000/svg"
 width="700.000000pt" height="700.000000pt" viewBox="0 0 700.000000 700.000000"
 preserveAspectRatio="xMidYMid meet">
<metadata>
Created by potrace 1.11, written by Peter Selinger 2001-2013
</metadata>
<g transform="translate(0.000000,700.000000) scale(0.100000,-0.100000)"
fill="#000000" stroke="none">
<path d="M2798 6995 c-1 -1 -39 -6 -83 -9 -85 -7 -285 -35 -295 -41 -4 -2 -22
-7 -41 -10 -123 -21 -386 -103 -549 -172 -731 -311 -1306 -895 -1610 -1634
-49 -119 -111 -306 -125 -379 -2 -8 -10 -42 -18 -75 -8 -33 -18 -78 -22 -100
-4 -22 -9 -49 -11 -60 -31 -177 -39 -276 -38 -515 0 -227 5 -311 29 -455 3
-16 10 -58 15 -92 6 -34 12 -68 15 -75 2 -7 7 -24 9 -38 10 -52 16 -76 42
-164 26 -89 67 -211 84 -251 4 -11 23 -56 41 -100 219 -523 604 -983 1112
-1329 38 -25 70 -46 72 -46 3 0 34 -18 70 -40 295 -181 735 -332 1090 -376 22
-3 49 -7 60 -9 87 -18 419 -25 575 -12 408 33 798 145 1155 331 66 35 156 86
200 114 44 28 85 52 92 54 7 2 324 -308 705 -688 635 -633 698 -694 758 -722
194 -92 397 -66 545 70 197 180 224 466 65 668 -16 19 -323 330 -684 690 -360
360 -656 658 -656 662 0 4 29 49 63 100 170 248 298 504 390 778 30 90 81 281
93 345 43 252 56 381 57 590 1 89 -10 293 -17 331 -2 10 -7 46 -11 79 -22 193
-120 549 -208 752 -49 112 -118 249 -175 345 -26 43 -51 87 -57 97 -5 9 -36
53 -67 98 -351 500 -856 894 -1406 1097 -124 46 -236 84 -268 91 -10 2 -68 15
-129 29 -117 26 -138 30 -255 46 -41 6 -88 13 -105 16 -33 6 -501 15 -507 9z
m467 -199 c39 -4 77 -9 85 -11 8 -2 40 -7 70 -10 30 -3 62 -8 70 -10 8 -2 31
-7 50 -10 113 -19 373 -96 519 -154 96 -39 257 -119 356 -178 53 -32 104 -62
114 -68 68 -40 266 -193 355 -275 534 -491 850 -1129 913 -1842 13 -143 6
-483 -11 -575 -2 -10 -7 -45 -11 -78 -3 -32 -8 -62 -10 -65 -2 -3 -6 -26 -10
-50 -14 -96 -75 -310 -129 -455 -35 -94 -34 -92 -109 -245 -350 -718 -1011
-1263 -1782 -1470 -139 -37 -356 -77 -471 -87 -160 -14 -570 -6 -634 12 -8 2
-37 7 -64 10 -27 3 -51 7 -55 9 -3 2 -27 7 -52 10 -107 14 -427 108 -511 150
-17 9 -35 16 -39 16 -4 0 -56 23 -114 51 -413 198 -735 457 -1034 835 -192
242 -380 616 -467 934 -41 149 -81 351 -90 455 -3 28 -7 68 -9 90 -5 47 -6
387 -1 430 2 17 7 62 10 100 6 62 22 160 42 265 48 249 175 580 316 823 210
363 520 694 867 927 96 65 245 151 316 184 22 10 63 30 90 43 129 63 362 140
550 183 69 15 109 22 253 45 13 2 63 7 110 10 48 4 88 8 89 9 6 5 364 -2 428
-8z"/>
<path d="M4456 5828 c-120 -16 -254 -107 -305 -207 -12 -22 -24 -41 -27 -41
-4 0 -43 9 -88 19 -44 11 -130 31 -191 46 -60 14 -166 39 -235 55 -351 83
-343 82 -351 68 -4 -7 -24 -60 -42 -118 -19 -58 -94 -285 -166 -505 l-131
-400 -37 -1 c-142 -3 -333 -26 -503 -59 -244 -48 -591 -182 -766 -295 l-32
-21 -28 24 c-79 66 -201 105 -319 102 -146 -4 -266 -57 -363 -162 -145 -156
-176 -399 -74 -586 31 -58 118 -156 156 -177 22 -11 25 -18 21 -44 -4 -17 -7
-62 -7 -101 -4 -280 107 -531 336 -761 206 -206 450 -352 774 -460 103 -35
313 -88 387 -99 40 -5 73 -11 130 -20 82 -14 198 -20 375 -20 227 0 338 8 490
35 30 6 69 12 85 15 58 10 201 47 294 76 494 157 880 449 1049 793 38 77 70
164 78 211 3 16 9 48 14 70 5 22 8 94 7 161 l-2 122 29 18 c49 28 131 121 164
183 80 149 83 313 7 467 -111 227 -381 338 -619 255 -66 -23 -136 -62 -156
-85 -17 -22 -34 -20 -78 7 -126 80 -304 161 -479 217 -84 28 -129 40 -238 66
-111 27 -271 50 -415 60 -52 4 -96 8 -98 9 -6 5 269 835 276 835 4 0 133 -30
287 -66 326 -77 284 -67 362 -84 61 -12 63 -13 68 -49 3 -20 14 -65 25 -101
59 -193 266 -315 471 -278 195 35 343 212 342 408 -1 86 -7 110 -41 185 -55
117 -190 218 -308 231 -27 3 -53 6 -59 8 -5 1 -37 -1 -69 -6z m-1216 -1263
c616 -59 1137 -306 1407 -666 72 -94 125 -208 157 -333 19 -77 15 -278 -8
-361 -42 -152 -142 -312 -276 -443 -278 -273 -745 -466 -1250 -519 -96 -10
-493 -10 -585 0 -265 29 -528 97 -746 192 -422 185 -716 482 -785 796 -18 81
-23 220 -10 284 20 101 28 131 55 193 105 247 336 467 656 622 121 59 283 124
337 135 9 2 50 13 90 24 143 39 320 68 473 78 50 3 91 7 93 8 5 4 333 -4 392
-10z"/>
<path d="M2205 3943 c-37 -15 -93 -51 -122 -79 -33 -32 -73 -113 -80 -158 -15
-106 -3 -159 53 -237 139 -193 429 -165 536 51 34 68 32 196 -4 266 -33 62
-88 117 -148 146 -58 28 -177 34 -235 11z"/>
<path d="M3568 3945 c-214 -79 -283 -351 -128 -506 77 -77 162 -109 261 -98
108 12 195 73 247 174 36 69 37 185 3 263 -31 69 -111 143 -181 165 -62 20
-150 21 -202 2z"/>
<path d="M2291 2899 c-53 -21 -67 -85 -29 -134 31 -40 156 -119 235 -149 152
-57 257 -71 523 -70 159 1 213 5 292 22 171 37 317 109 393 193 31 35 35 45
30 72 -9 42 -30 64 -66 72 -31 7 -60 -7 -109 -52 -14 -13 -27 -24 -30 -24 -3
-1 -246 -2 -540 -3 l-534 -1 -31 22 c-89 67 -94 68 -134 52z"/>
</g>
</svg>
